sean_bold.sfdir

StartChar: exclam
Encoding: 33 33 1
Width: 429
Flags: MW
HStem: 0 142<185 303 185 303> 702 20G<184 303 303 303>
VStem: 185 118<0 142 0 142> 194 102<229 229>
LayerCount: 2
Fore
SplineSet
194 229 m 1xd0
 184 722 l 1
 303 722 l 1xe0
 296 229 l 1
 194 229 l 1xd0
185 142 m 1
 303 142 l 1
 303 0 l 1
 185 0 l 1
 185 142 l 1
EndSplineSet
EndChar

StartChar: quotedbl
Encoding: 34 34 2
Width: 462
Flags: MW
HStem: 658 188<78 223 112 180 112 256 290 358>
VStem: 78 322<658 846>
LayerCount: 2
Fore
SplineSet
256 658 m 1
 290 846 l 1
 400 846 l 1
 358 658 l 1
 256 658 l 1
78 658 m 1
 112 846 l 1
 223 846 l 1
 180 658 l 1
 78 658 l 1
EndSplineSet
EndChar

StartChar: numbersign
Encoding: 35 35 3
Width: 671
Flags: MW
HStem: 222 75<64 82> 235 76<429 452> 443 75<206 229> 452 77<495 518>
LayerCount: 2
Fore
SplineSet
64 222 m 1x80
 82 297 l 1
 164 300 l 1
 206 443 l 1
 130 440 l 1
 148 515 l 1
 229 518 l 1xa0
 285 706 l 1
 362 706 l 1
 307 521 l 1
 440 526 l 1
 499 720 l 1
 576 720 l 1
 518 529 l 1
 586 531 l 1
 574 455 l 1
 495 452 l 1
 452 311 l 1
 520 313 l 1
 505 238 l 1
 429 235 l 1x50
 369 38 l 1
 292 38 l 1
 351 232 l 1
 219 228 l 1
 160 30 l 1
 83 30 l 1
 141 225 l 1
 64 222 l 1x80
284 445 m 1
 242 303 l 1
 374 308 l 1
 417 450 l 1
 284 445 l 1
EndSplineSet
EndChar

StartChar: quotesingle
Encoding: 39 39 4
Width: 283
Flags: MW
HStem: 658 188<82 223 120 184>
VStem: 82 141
LayerCount: 2
Fore
SplineSet
82 658 m 1
 120 846 l 1
 223 846 l 1
 184 658 l 1
 82 658 l 1
EndSplineSet
EndChar

StartChar: parenleft
Encoding: 40 40 5
Width: 470
Flags: MW
VStem: 60 115<227 431.5 227 439>
LayerCount: 2
Fore
SplineSet
392 861 m 1
 254 719 175 538 175 325 c 0
 175 129 249 -60 384 -203 c 1
 304 -285 l 1
 148 -121 60 96 60 322 c 0
 60 556 145 767 301 931 c 1
 392 861 l 1
EndSplineSet
EndChar

StartChar: parenright
Encoding: 41 41 6
Width: 472
Flags: MW
VStem: 289 117<218 423.5>
LayerCount: 2
Fore
SplineSet
289 320 m 0
 289 527 211 712 71 853 c 1
 151 935 l 1
 312 775 406 567 406 322 c 0
 406 91 315 -131 151 -294 c 1
 61 -225 l 1
 207 -81 289 116 289 320 c 0
EndSplineSet
EndChar

StartChar: plus
Encoding: 43 43 7
Width: 762
Flags: MW
HStem: 271 102<108 338 108 337>
VStem: 337 106<18 270 18 271 18 271>
LayerCount: 2
Fore
SplineSet
108 271 m 1
 108 373 l 1
 338 373 l 1
 338 588 l 1
 444 588 l 1
 444 372 l 1
 663 372 l 1
 663 270 l 1
 443 270 l 1
 443 18 l 1
 337 18 l 1
 337 271 l 1
 108 271 l 1
EndSplineSet
EndChar

StartChar: comma
Encoding: 44 44 8
Width: 352
Flags: MW
HStem: -119 211<59 275 139 144>
VStem: 59 216<-119 92>
LayerCount: 2
Fore
SplineSet
59 -119 m 1
 139 92 l 1
 275 92 l 1
 144 -119 l 1
 59 -119 l 1
EndSplineSet
EndChar

StartChar: hyphen
Encoding: 45 45 9
Width: 414
Flags: MW
HStem: 221 102<74 351 74 351>
VStem: 74 277<221 323 221 323>
LayerCount: 2
Fore
SplineSet
74 323 m 1
 351 323 l 1
 351 221 l 1
 74 221 l 1
 74 323 l 1
EndSplineSet
EndChar

StartChar: period
Encoding: 46 46 10
Width: 354
Flags: MW
HStem: 0 167<119 246 119 246>
VStem: 119 127<0 167 0 167>
LayerCount: 2
Fore
SplineSet
119 167 m 1
 246 167 l 1
 246 0 l 1
 119 0 l 1
 119 167 l 1
EndSplineSet
EndChar

StartChar: slash
Encoding: 47 47 11
Width: 585
Flags: W
LayerCount: 2
Fore
SplineSet
159 -68 m 1
 40 -68 l 1
 446 844 l 1
 565 844 l 1
 159 -68 l 1
EndSplineSet
EndChar

StartChar: zero
Encoding: 48 48 12
Width: 586
Flags: MW
HStem: -25 110<255.5 298 298 302> 413 114<295 297 297 341>
VStem: 46 119<204.5 292 204.5 325> 433 117<209.5 296.5>
LayerCount: 2
Fore
SplineSet
165 248 m 0
 165 161 214 85 297 85 c 0
 374 85 433 164 433 255 c 0
 433 338 382 413 300 413 c 0
 220 413 165 336 165 248 c 0
298 -25 m 2
 159 -25 46 97 46 252 c 0
 46 398 151 526 295 527 c 1
 297 527 l 2
 442 527 550 399 550 250 c 0
 550 98 440 -23 302 -25 c 1
 298 -25 l 2
EndSplineSet
EndChar

StartChar: one
Encoding: 49 49 13
Width: 348
Flags: MW
HStem: 0 21G<172 290 172 172>
VStem: 172 118<0 503>
LayerCount: 2
Fore
SplineSet
171 503 m 1
 290 503 l 1
 290 0 l 1
 172 0 l 1
 171 368 l 1
 61 272 l 1
 -8 347 l 1
 171 503 l 1
EndSplineSet
EndChar

StartChar: two
Encoding: 50 50 14
Width: 471
Flags: MW
HStem: 9 102<30 87 278 455 30 87> 433 106<185 239>
VStem: 307 107<318 355.5>
LayerCount: 2
Fore
SplineSet
307 330 m 0
 307 381 271 433 207 433 c 0
 163 433 125 401 93 358 c 1
 23 420 l 1
 77 491 143 539 220 539 c 0
 342 539 414 449 414 349 c 0
 414 234 353 152 278 111 c 1
 455 111 l 1
 455 9 l 1
 30 9 l 1
 30 111 l 1
 144 111 236 153 287 254 c 0
 300 280 307 306 307 330 c 0
EndSplineSet
EndChar

StartChar: three
Encoding: 51 51 15
Width: 570
Flags: MW
HStem: -258 99<190.5 243.5> 83 94<156 157 156 156 157 187> 427 103<192 250>
VStem: 357 115<284 348> 386 122<-69.5 -26.5>
LayerCount: 2
Fore
SplineSet
357 311 m 0xf0
 357 385 292 427 208 427 c 0
 158 427 115 408 78 368 c 1
 34 442 l 1
 90 501 155 530 229 530 c 0
 371 530 472 454 472 321 c 0xf0
 472 247 438 188 384 148 c 1
 445 122 508 56 508 -34 c 0
 508 -105 464 -170 390 -212 c 0
 335 -243 274 -258 213 -258 c 0
 162 -258 111 -248 64 -226 c 1
 105 -132 l 1
 137 -150 173 -159 208 -159 c 0
 283 -159 386 -109 386 -31 c 0xe8
 386 -22 384 -11 381 -1 c 0
 356 79 276 83 187 83 c 2
 157 83 l 1
 156 83 l 1
 155 177 l 1
 264 177 357 215 357 311 c 0xf0
EndSplineSet
EndChar

StartChar: four
Encoding: 52 52 16
Width: 624
Flags: MW
HStem: 30 102<169 354 33 33 473 600>
VStem: 354 118<30 30>
LayerCount: 2
Fore
SplineSet
169 132 m 1
 355 132 l 1
 356 373 l 1
 169 132 l 1
33 132 m 1
 357 527 l 1
 475 527 l 1
 473 132 l 1
 600 132 l 1
 600 30 l 1
 472 30 l 1
 471 -222 l 1
 353 -222 l 1
 354 30 l 1
 33 30 l 1
 33 132 l 1
EndSplineSet
EndChar

StartChar: five
Encoding: 53 53 17
Width: 531
Flags: MW
HStem: -255 106<230.5 299 230.5 337> 158 103<261.5 302.5> 432 102<196 450 196 196>
VStem: 85 111<152 432> 418 111<-40.5 56>
LayerCount: 2
Fore
SplineSet
274 261 m 0
 417 261 529 170 529 1 c 0
 529 -147 413 -255 261 -255 c 0
 200 -255 134 -238 67 -199 c 1
 116 -110 l 1
 163 -137 210 -149 251 -149 c 0
 347 -149 418 -85 418 4 c 0
 418 108 347 158 258 158 c 0
 238 158 217 156 195 152 c 1
 85 152 l 1
 86 534 l 1
 450 534 l 1
 450 432 l 1
 196 432 l 1
 196 254 l 1
 223 259 249 261 274 261 c 0
EndSplineSet
EndChar

StartChar: six
Encoding: 54 54 18
Width: 602
Flags: MW
HStem: -11 119<276 348.5 276 383> 329 90<309 324.5>
VStem: 50 115<224 272 272 287 224 311.5> 433 128<179 243>
LayerCount: 2
Fore
SplineSet
503 748 m 1
 545 646 l 1
 455 611 371 560 297 497 c 0
 257 464 221 425 197 382 c 1
 238 406 285 419 333 419 c 0
 459 419 561 342 561 214 c 0
 561 92 451 -11 315 -11 c 0
 160 -11 50 108 50 260 c 0
 50 363 105 460 177 539 c 0
 266 636 378 708 503 748 c 1
433 210 m 0
 433 276 365 329 284 329 c 0
 241 329 199 314 165 287 c 1
 165 272 l 2
 165 176 236 108 316 108 c 0
 381 108 433 148 433 210 c 0
EndSplineSet
EndChar

StartChar: seven
Encoding: 55 55 19
Width: 582
Flags: MW
HStem: 408 111<90 402 90 90>
LayerCount: 2
Fore
SplineSet
90 519 m 1
 532 518 l 1
 532 408 l 1
 203 -222 l 1
 77 -222 l 1
 402 408 l 1
 90 408 l 1
 90 519 l 1
EndSplineSet
EndChar

StartChar: eight
Encoding: 56 56 20
Width: 592
Flags: MW
HStem: -42 98<318 320 320 346.5 318 359.5> 591 101<272.5 323>
VStem: 81 116<133 186.5> 96 108<487.5 538 487.5 563.5> 402 115<479.5 531> 427 102<119.5 179>
LayerCount: 2
Fore
SplineSet
295 591 m 0xd8
 250 591 204 564 204 512 c 0
 204 463 255 424 316 393 c 1
 363 421 402 457 402 502 c 0
 402 560 351 591 295 591 c 0xd8
297 -42 m 0
 181 -42 81 35 81 146 c 0xe4
 81 227 138 287 209 333 c 1
 145 375 96 435 96 509 c 0
 96 618 197 692 306 692 c 0
 418 692 517 617 517 511 c 0xd8
 517 442 473 384 414 344 c 1
 478 304 529 246 529 164 c 0xc4
 529 48 422 -42 297 -42 c 0
320 56 m 2
 373 56 427 89 427 150 c 0
 427 208 367 250 301 284 c 1
 246 254 197 217 197 164 c 0
 197 102 252 56 318 56 c 2
 320 56 l 2
EndSplineSet
EndChar

StartChar: nine
Encoding: 57 57 21
Width: 609
Flags: MW
HStem: 72 102<289 310.5> 407 121<264 334.5>
VStem: 60 129<266.5 330.5 266.5 358> 439 116<221 233 233 282>
LayerCount: 2
Fore
SplineSet
300 528 m 0
 465 528 555 385 555 240 c 0
 555 117 492 8 408 -77 c 0
 332 -154 238 -212 135 -246 c 1
 91 -136 l 1
 215 -99 332 -15 397 94 c 1
 364 79 329 72 292 72 c 0
 161 72 60 159 60 294 c 0
 60 422 169 528 300 528 c 0
189 301 m 0
 189 232 249 174 329 174 c 0
 371 174 411 192 439 221 c 1
 439 233 l 2
 439 331 373 407 296 407 c 0
 232 407 189 360 189 301 c 0
EndSplineSet
EndChar

StartChar: colon
Encoding: 58 58 22
Width: 379
Flags: MW
HStem: 0 152<138 257 138 257> 341 151<138 257 138 257>
VStem: 138 119<0 152 0 152 341 492>
LayerCount: 2
Fore
SplineSet
138 152 m 1
 257 152 l 1
 257 0 l 1
 138 0 l 1
 138 152 l 1
138 492 m 1
 257 492 l 1
 257 341 l 1
 138 341 l 1
 138 492 l 1
EndSplineSet
EndChar

StartChar: semicolon
Encoding: 59 59 23
Width: 352
Flags: MW
HStem: 341 151<141 260 141 260>
VStem: 141 119<341 492 341 492>
LayerCount: 2
Fore
SplineSet
141 341 m 1
 141 492 l 1
 260 492 l 1
 260 341 l 1
 141 341 l 1
51 -95 m 1
 144 92 l 1
 271 92 l 1
 153 -95 l 1
 51 -95 l 1
EndSplineSet
EndChar

StartChar: less
Encoding: 60 60 24
Width: 826
Flags: W
LayerCount: 2
Fore
SplineSet
250 301 m 1
 711 96 l 1
 711 -23 l 1
 120 241 l 1
 120 359 l 1
 701 629 l 1
 701 510 l 1
 250 301 l 1
EndSplineSet
EndChar

StartChar: equal
Encoding: 61 61 25
Width: 846
Flags: MW
HStem: 166 102<123 723 123 723> 389 102<123 723 123 723>
LayerCount: 2
Fore
SplineSet
123 268 m 1
 723 268 l 1
 723 166 l 1
 123 166 l 1
 123 268 l 1
123 491 m 1
 723 491 l 1
 723 389 l 1
 123 389 l 1
 123 491 l 1
EndSplineSet
EndChar

StartChar: greater
Encoding: 62 62 26
Width: 826
Flags: W
LayerCount: 2
Fore
SplineSet
137 -23 m 1
 137 96 l 1
 588 301 l 1
 123 510 l 1
 123 629 l 1
 719 360 l 1
 719 242 l 1
 137 -23 l 1
EndSplineSet
EndChar

StartChar: question
Encoding: 63 63 27
Width: 569
Flags: MW
HStem: -10 159<205 340 205 340> 226 183<215 261.5 215 333 214 261.5> 667 109<273.5 314.5>
VStem: 205 135<-10 149> 215 118<226 409 226 409> 405 124<497.5 581.5>
LayerCount: 2
Fore
SplineSet
529 545 m 0xf4
 529 415 437 344 333 320 c 1
 333 226 l 1
 214 226 l 1
 215 342 l 1
 215 409 l 1xec
 308 409 405 449 405 546 c 0
 405 617 346 667 283 667 c 0
 256 667 229 658 205 638 c 1
 160 730 l 1
 204 762 251 776 296 776 c 0
 419 776 529 672 529 545 c 0xf4
340 -10 m 1xf4
 205 -10 l 1
 205 149 l 1
 340 149 l 1
 340 -10 l 1xf4
EndSplineSet
EndChar

StartChar: at
Encoding: 64 64 28
Width: 851
Flags: MW
HStem: -166 83<448 452 448 497.5> 18 77<612.5 646 612.5 664.5> 33 68<418 420 418 432> 339 81<444 455> 503 79<357 438 438 442>
VStem: 58 84<129.5 293 129.5 311> 236 86<181 246.5 181 271> 518 87<287.5 310.5> 716 85<198.5 316>
LayerCount: 2
Fore
SplineSet
580 146 m 0xbf80
 580 118 600 95 625 95 c 0
 667 95 716 154 716 243 c 0
 716 389 591 501 442 503 c 1
 438 503 l 2
 276 503 142 374 142 212 c 0
 142 47 281 -83 448 -83 c 2
 452 -83 l 1
 530 -82 604 -51 659 4 c 1
 716 -59 l 1
 644 -129 548 -166 447 -166 c 0
 233 -166 58 -3 58 206 c 0
 58 416 233 582 443 582 c 0
 644 582 801 435 801 250 c 0
 801 118 711 18 618 18 c 0xdf80
 578 18 538 40 518 66 c 1
 488 44 451 33 413 33 c 0
 307 33 236 112 236 215 c 0
 236 327 329 420 443 420 c 0
 530 420 605 367 605 283 c 0
 605 237 580 195 580 146 c 0xbf80
322 212 m 0
 322 150 364 101 418 101 c 2
 420 101 l 1xbf80
 452 102 480 119 494 146 c 1
 497 190 518 279 518 296 c 0
 518 325 466 339 444 339 c 0
 375 338 322 281 322 212 c 0
EndSplineSet
EndChar

StartChar: A
Encoding: 65 65 29
Width: 765
Flags: MW
HStem: 0 21G<44 171 44 44> 183 97<292 502 292 533 250 502> 701 20G<364 482 482 482>
LayerCount: 2
Fore
SplineSet
502 280 m 1
 414 563 l 1
 292 280 l 1
 502 280 l 1
533 183 m 1
 250 183 l 1
 171 0 l 1
 44 0 l 1
 364 721 l 1
 482 721 l 1
 713 1 l 1
 590 1 l 1
 533 183 l 1
EndSplineSet
EndChar

StartChar: B
Encoding: 66 66 30
Width: 648
Flags: MW
HStem: 0 98<209 289 209 289> 354 93<274 287 287 325 209 338> 625 97<209 284 209 209>
VStem: 90 119<98 353 447 625> 428 119<510 573.5> 472 118<216 261 216 267.5>
LayerCount: 2
Fore
SplineSet
284 722 m 2xf4
 421 722 547 681 547 541 c 0xf8
 547 479 514 432 462 401 c 1
 539 367 590 306 590 216 c 0
 589 68 453 0 289 0 c 2
 90 0 l 1
 90 722 l 1
 284 722 l 2xf4
428 536 m 0
 428 611 358 625 284 625 c 2
 209 625 l 1
 209 447 l 1
 287 447 l 2
 363 447 428 476 428 536 c 0
289 98 m 2
 385 98 472 129 472 226 c 0xf4
 472 309 389 354 287 354 c 0
 261 354 235 354 209 353 c 1
 209 98 l 1
 289 98 l 2
EndSplineSet
EndChar

StartChar: C
Encoding: 67 67 31
Width: 687
Flags: MW
HStem: -6 117<357.5 463> 617 116<357 464.5 307 466.5>
VStem: 60 128<284.5 358>
LayerCount: 2
Fore
SplineSet
431 111 m 0
 505 111 562 129 616 163 c 1
 674 64 l 1
 596 19 511 -6 415 -6 c 0
 197 -6 60 134 60 358 c 0
 61 587 201 733 413 733 c 0
 516 733 596 707 671 664 c 1
 619 566 l 1
 564 599 499 617 434 617 c 0
 280 617 188 521 188 360 c 0
 188 209 284 111 431 111 c 0
EndSplineSet
EndChar

StartChar: D
Encoding: 68 68 32
Width: 701
Flags: MW
HStem: 0 118<179 287 287 331> 604 118<179 279 279 298 179 179>
VStem: 61 118<118 604 118 722> 539 127<269.5 422.5>
LayerCount: 2
Fore
SplineSet
279 722 m 2
 513 722 666 592 666 351 c 0
 666 132 553 0 331 0 c 2
 61 0 l 1
 61 722 l 1
 279 722 l 2
539 343 m 0
 539 502 448 604 298 604 c 2
 179 604 l 1
 179 118 l 1
 287 118 l 2
 446 118 539 196 539 343 c 0
EndSplineSet
EndChar

StartChar: E
Encoding: 69 69 33
Width: 624
Flags: MW
HStem: 0 114<214 563 214 563> 316 114<214 454 214 454> 608 114<214 531 214 214>
VStem: 95 119<114 316 430 608>
LayerCount: 2
Fore
SplineSet
95 0 m 1
 95 722 l 1
 531 722 l 1
 531 608 l 1
 214 608 l 1
 214 430 l 1
 454 430 l 1
 454 316 l 1
 214 316 l 1
 214 114 l 1
 563 114 l 1
 563 0 l 1
 95 0 l 1
EndSplineSet
EndChar

StartChar: F
Encoding: 70 70 34
Width: 588
Flags: MW
HStem: 0 21G<95 95 95 214> 316 115<214 467 214 467> 608 114<214 535 214 214>
VStem: 95 119<0 316 431 608>
LayerCount: 2
Fore
SplineSet
95 0 m 1
 95 722 l 1
 535 722 l 1
 535 608 l 1
 214 608 l 1
 214 431 l 1
 467 431 l 1
 467 316 l 1
 214 316 l 1
 214 0 l 1
 95 0 l 1
EndSplineSet
EndChar

StartChar: G
Encoding: 71 71 35
Width: 782
Flags: MW
HStem: -6 102<361 470> 254 106<482 608 482 714> 614 116<367 482 320.5 482.5>
VStem: 62 122<270 430.5 270 463.5> 608 106<131 254 254 254>
LayerCount: 2
Fore
SplineSet
438 96 m 0
 503 96 554 109 608 131 c 1
 608 254 l 1
 482 254 l 1
 482 360 l 1
 714 360 l 1
 714 76 l 1
 624 22 525 -6 415 -6 c 0
 198 -6 62 126 62 348 c 0
 62 579 210 730 431 730 c 0
 533 730 613 705 691 659 c 1
 640 561 l 1
 581 596 519 614 446 614 c 0
 288 614 184 512 184 349 c 0
 184 191 284 96 438 96 c 0
EndSplineSet
EndChar

StartChar: H
Encoding: 72 72 36
Width: 761
Flags: MW
HStem: 0 21G<74 193 74 74 575 694 575 575> 307 110<194 575 194 575 193 575> 702 20G<75 194 194 194 575 694 694 694>
VStem: 74 119<0 307> 575 119<0 307 307 307 417 722 0 722>
LayerCount: 2
Fore
SplineSet
575 722 m 1
 694 722 l 1
 694 0 l 1
 575 0 l 1
 575 307 l 1
 193 307 l 1
 193 0 l 1
 74 0 l 1
 75 722 l 1
 194 722 l 1
 194 417 l 1
 575 417 l 1
 575 722 l 1
EndSplineSet
EndChar

StartChar: I
Encoding: 73 73 37
Width: 267
Flags: MW
HStem: 0 21G<78 78 78 197> 702 20G<78 197 197 197>
VStem: 78 119<0 722 0 722>
LayerCount: 2
Fore
SplineSet
78 0 m 1
 78 722 l 1
 197 722 l 1
 197 0 l 1
 78 0 l 1
EndSplineSet
EndChar

StartChar: J
Encoding: 74 74 38
Width: 326
Flags: MW
HStem: -238 102<36 82 36 110> 702 20G<137 256 256 256>
VStem: 136 119<-30 0>
LayerCount: 2
Fore
SplineSet
255 0 m 2
 255 -122 173 -238 47 -238 c 0
 8 -238 -29 -225 -60 -201 c 1
 -9 -113 l 1
 7 -128 26 -136 46 -136 c 0
 118 -136 136 -60 136 0 c 2
 137 722 l 1
 256 722 l 1
 255 0 l 2
EndSplineSet
EndChar

StartChar: K
Encoding: 75 75 39
Width: 670
Flags: MW
HStem: 0 21G<78 78 78 197 484 484 484 625> 702 20G<78 197 197 197 476 618 618 618>
VStem: 78 119<0 292 463 722>
LayerCount: 2
Fore
SplineSet
78 0 m 1
 78 722 l 1
 197 722 l 1
 197 463 l 1
 476 722 l 1
 618 722 l 1
 253 377 l 1
 625 0 l 1
 484 0 l 1
 197 292 l 1
 197 0 l 1
 78 0 l 1
EndSplineSet
EndChar

StartChar: L
Encoding: 76 76 40
Width: 575
Flags: MW
HStem: 0 114<197 538 197 538> 702 20G<78 197 197 197>
VStem: 78 119<114 722 114 722 114 722>
LayerCount: 2
Fore
SplineSet
78 0 m 1
 78 722 l 1
 197 722 l 1
 197 114 l 1
 538 114 l 1
 538 0 l 1
 78 0 l 1
EndSplineSet
EndChar

StartChar: M
Encoding: 77 77 41
Width: 877
Flags: MW
HStem: 0 21G<45 164 45 45 371 485 371 371 702 702 702 821> 702 20G<99 218 218 218 676 755 755 755>
LayerCount: 2
Fore
SplineSet
662 472 m 1
 485 0 l 1
 371 0 l 1
 196 464 l 1
 164 0 l 1
 45 0 l 1
 99 722 l 1
 218 722 l 1
 422 138 l 1
 637 723 l 1
 676 722 l 1
 755 722 l 1
 821 0 l 1
 702 0 l 1
 662 472 l 1
EndSplineSet
EndChar

StartChar: N
Encoding: 78 78 42
Width: 771
Flags: MW
HStem: 0 21G<78 78 78 197 592 592 592 711> 702 20G<78 197 197 197 592 711 711 711>
VStem: 78 119<0 546 0 722> 592 119<0 722 177 722 0 722>
LayerCount: 2
Fore
SplineSet
78 0 m 1
 78 722 l 1
 197 722 l 1
 592 177 l 1
 592 722 l 1
 711 722 l 1
 711 0 l 1
 592 0 l 1
 197 546 l 1
 197 0 l 1
 78 0 l 1
EndSplineSet
EndChar

StartChar: O
Encoding: 79 79 43
Width: 760
Flags: MW
HStem: -6 109<318.5 455.5 318.5 485> 618 110<313 450>
VStem: 45 124<283 429.5 283 466.5> 598 124<290.5 435>
LayerCount: 2
Fore
SplineSet
383 618 m 0
 243 618 169 504 169 355 c 0
 169 211 253 103 384 103 c 0
 527 103 598 218 598 363 c 0
 598 507 517 618 383 618 c 0
382 -6 m 0
 175 -6 45 149 45 360 c 0
 45 573 179 728 383 728 c 0
 595 728 722 574 722 359 c 0
 722 148 588 -6 382 -6 c 0
EndSplineSet
EndChar

StartChar: P
Encoding: 80 80 44
Width: 567
Flags: MW
HStem: 0 21G<78 197 78 78> 235 112<283 319.5 261.5 374> 612 110<197 260 197 197>
VStem: 78 119<0 254 0 363 363 612> 428 120<436.5 521.5>
LayerCount: 2
Fore
SplineSet
303 235 m 0
 263 235 228 243 197 254 c 1
 197 0 l 1
 78 0 l 1
 78 722 l 1
 260 722 l 2
 414 722 548 642 548 467 c 0
 548 335 445 235 303 235 c 0
428 472 m 0
 428 571 348 612 260 612 c 2
 197 612 l 1
 197 363 l 1
 222 353 248 347 275 347 c 0
 364 347 428 401 428 472 c 0
EndSplineSet
EndChar

StartChar: Q
Encoding: 81 81 45
Width: 765
Flags: MW
HStem: -234 102<769 769> 615 113<312.5 452.5>
VStem: 41 121<291 436.5 291 470.5> 609 122<287 431.5>
LayerCount: 2
Fore
SplineSet
478 6 m 1
 544 -66 648 -124 769 -132 c 1
 769 -234 l 1
 589 -229 436 -127 355 -5 c 1
 165 8 41 156 41 365 c 0
 41 576 179 728 387 728 c 0
 597 728 731 575 731 356 c 0
 731 180 633 45 478 6 c 1
385 615 m 0
 240 615 162 508 162 365 c 0
 162 217 252 106 386 106 c 0
 534 106 609 216 609 358 c 0
 609 505 520 615 385 615 c 0
EndSplineSet
EndChar

StartChar: R
Encoding: 82 82 46
Width: 689
Flags: MW
HStem: 0 21G<98 217 98 98 553 690 553 553> 297 106<217 274 217 274> 608 114<217 299 217 217>
VStem: 98 119<0 297 0 403 403 608> 461 118<469 548>
LayerCount: 2
Fore
SplineSet
299 722 m 2
 450 722 579 663 579 513 c 0
 579 425 526 362 445 328 c 1
 690 0 l 1
 553 0 l 1
 329 300 l 1
 311 298 293 297 274 297 c 2
 217 297 l 1
 217 0 l 1
 98 0 l 1
 98 722 l 1
 299 722 l 2
461 508 m 0
 461 588 383 608 299 608 c 2
 217 608 l 1
 217 403 l 1
 274 403 l 2
 373 403 461 428 461 508 c 0
EndSplineSet
EndChar

StartChar: S
Encoding: 83 83 47
Width: 591
Flags: MW
HStem: -7 110<291 295 295 327.5 291 358.5> 623 108<259 316.5>
VStem: 63 125<518.5 574 518.5 605.5> 413 132<160 225.5>
LayerCount: 2
Fore
SplineSet
452 584 m 1
 401 606 347 623 286 623 c 0
 232 623 188 600 188 548 c 0
 188 489 277 451 350 420 c 0
 447 379 545 314 545 190 c 0
 545 72 432 -7 285 -7 c 0
 201 -7 127 11 54 39 c 1
 88 148 l 1
 152 119 221 104 291 103 c 1
 295 103 l 2
 360 103 413 129 413 191 c 0
 413 260 339 296 270 326 c 1
 172 367 63 425 63 553 c 0
 63 658 161 731 290 731 c 0
 369 731 431 711 492 682 c 1
 452 584 l 1
EndSplineSet
EndChar

StartChar: T
Encoding: 84 84 48
Width: 626
Flags: MW
HStem: 0 21G<246 365 246 246> 613 115<16 619 16 246 365 365 365 619>
VStem: 246 119<0 613 0 613>
LayerCount: 2
Fore
SplineSet
16 613 m 1
 16 728 l 1
 619 728 l 1
 619 613 l 1
 365 613 l 1
 365 0 l 1
 246 0 l 1
 246 613 l 1
 16 613 l 1
EndSplineSet
EndChar

StartChar: U
Encoding: 85 85 49
Width: 708
Flags: MW
HStem: -6 115<315 435 315 455> 702 20G<68 186 186 186 544 663 663 663>
VStem: 68 118<318 341 341 722> 545 118<247.5 329 329 374.5>
LayerCount: 2
Fore
SplineSet
68 722 m 1
 186 722 l 1
 186 341 l 2
 186 201 249 109 381 109 c 0
 489 109 545 190 545 305 c 0
 545 444 545 583 544 722 c 1
 663 722 l 1
 663 329 l 2
 663 128 552 -6 358 -6 c 0
 167 -6 68 120 68 318 c 2
 68 722 l 1
EndSplineSet
EndChar

StartChar: V
Encoding: 86 86 50
Width: 766
Flags: MW
HStem: 0 21G<335 462 335 335> 702 20G<55 182 182 182 616 739 739 739>
LayerCount: 2
Fore
SplineSet
739 722 m 1
 462 0 l 1
 335 0 l 1
 55 722 l 1
 182 722 l 1
 399 165 l 1
 616 722 l 1
 739 722 l 1
EndSplineSet
EndChar

StartChar: W
Encoding: 87 87 51
Width: 965
Flags: MW
HStem: 0 21G<277 384 277 277 624 731 624 624> 702 20G<45 164 164 164 450 553 553 553 819 934 934 934>
LayerCount: 2
Fore
SplineSet
934 722 m 1
 731 0 l 1
 624 0 l 1
 505 518 l 1
 384 0 l 1
 277 0 l 1
 45 722 l 1
 164 722 l 1
 322 188 l 1
 450 722 l 1
 553 722 l 1
 676 191 l 1
 819 722 l 1
 934 722 l 1
EndSplineSet
EndChar

StartChar: X
Encoding: 88 88 52
Width: 697
Flags: MW
HStem: 0 21G<23 154 23 23 531 658 531 531> 702 20G<65 193 193 193 543 674 674 674>
LayerCount: 2
Fore
SplineSet
65 722 m 1
 193 722 l 1
 357 467 l 1
 543 722 l 1
 674 722 l 1
 418 372 l 1
 658 0 l 1
 531 0 l 1
 352 277 l 1
 154 0 l 1
 23 0 l 1
 293 368 l 1
 65 722 l 1
EndSplineSet
EndChar

StartChar: Y
Encoding: 89 89 53
Width: 630
Flags: MW
HStem: 0 21G<267 386 267 267> 702 20G<35 158 158 158 504 631 631 631>
VStem: 267 119<0 310 310 310>
LayerCount: 2
Fore
SplineSet
504 722 m 1
 631 722 l 1
 386 335 l 1
 386 0 l 1
 267 0 l 1
 267 310 l 1
 35 722 l 1
 158 722 l 1
 322 434 l 1
 504 722 l 1
EndSplineSet
EndChar

StartChar: Z
Encoding: 90 90 54
Width: 674
Flags: MW
HStem: 0 110<188 630 52 52> 605 110<116 116 116 469>
LayerCount: 2
Fore
SplineSet
116 605 m 1
 116 715 l 1
 604 716 l 1
 604 605 l 1
 188 110 l 1
 630 110 l 1
 630 0 l 1
 52 0 l 1
 52 110 l 1
 469 605 l 1
 116 605 l 1
EndSplineSet
EndChar

StartChar: underscore
Encoding: 95 95 55
Width: 723
Flags: MW
HStem: -266 118<41 692 41 692>
LayerCount: 2
Fore
SplineSet
41 -148 m 1
 692 -148 l 1
 692 -266 l 1
 41 -266 l 1
 41 -148 l 1
EndSplineSet
EndChar

StartChar: grave
Encoding: 96 96 56
Width: 358
Flags: MW
HStem: 656 190<60 209 60 327>
VStem: 60 267<656 846>
LayerCount: 2
Fore
SplineSet
209 656 m 1
 60 846 l 1
 187 846 l 1
 327 656 l 1
 209 656 l 1
EndSplineSet
EndChar

StartChar: a
Encoding: 97 97 57
Width: 634
Flags: MW
HStem: -10 101<242 278.5> 0 21G<409 527 409 409> 258 82<300 355> 448 97<242 305>
VStem: 67 118<133.5 193 133.5 211.5> 409 118<0 64 64 64 169 254 254 254>
LayerCount: 2
Fore
SplineSet
409 337 m 1xbc
 407 408 346 448 264 448 c 0
 219 448 174 435 135 412 c 1
 86 493 l 1
 144 528 209 545 275 545 c 0
 420 545 527 475 527 346 c 2
 527 0 l 1
 409 0 l 1x7c
 409 64 l 1
 364 18 310 -10 247 -10 c 0
 141 -10 67 50 67 145 c 0
 67 278 198 340 353 340 c 0
 371 340 390 339 409 337 c 1xbc
409 254 m 1
 387 256 365 258 345 258 c 0
 255 258 185 232 185 154 c 0
 185 113 220 91 264 91 c 0xbc
 329 91 374 121 409 169 c 1
 409 254 l 1
EndSplineSet
EndChar

StartChar: b
Encoding: 98 98 58
Width: 607
Flags: MW
HStem: -6 91<299 346.5 272 401.5> 455 85<315.5 343.5> 763 20G<64 182 182 182>
VStem: 64 118<0 40 0 135 135 407 487 783> 453 122<209 309>
LayerCount: 2
Fore
SplineSet
330 -6 m 0
 268 -6 220 12 182 40 c 1
 182 0 l 1
 64 0 l 1
 64 783 l 1
 182 783 l 1
 182 487 l 1
 230 520 288 540 343 540 c 0
 488 540 575 413 575 259 c 0
 575 107 473 -6 330 -6 c 0
297 455 m 0
 253 455 213 436 182 407 c 1
 182 135 l 1
 210 103 250 85 294 85 c 0
 399 85 453 164 453 254 c 0
 453 364 390 455 297 455 c 0
EndSplineSet
EndChar

StartChar: c
Encoding: 99 99 59
Width: 489
Flags: MW
HStem: -10 106<279.5 345> 438 101<274.5 343>
VStem: 43 121<217.5 311.5 217.5 348>
LayerCount: 2
Fore
SplineSet
164 264 m 0
 164 171 227 96 332 96 c 0
 369 96 402 110 432 136 c 1
 487 58 l 1
 436 12 377 -10 313 -10 c 0
 144 -10 43 105 43 270 c 0
 43 426 152 539 312 539 c 0
 375 539 424 522 470 485 c 1
 423 402 l 1
 393 426 360 438 326 438 c 0
 223 438 164 359 164 264 c 0
EndSplineSet
EndChar

StartChar: d
Encoding: 100 100 60
Width: 641
Flags: MW
HStem: -6 95<283 323.5> 443 101<279 325.5 226 354> 763 20G<454 573 573 573>
VStem: 54 119<219.5 321.5 219.5 347.5> 455 118<0 53 0 53>
LayerCount: 2
Fore
SplineSet
333 443 m 0
 225 443 173 371 173 272 c 0
 173 167 238 89 328 89 c 0
 386 89 428 114 455 149 c 1
 455 229 456 309 456 389 c 2
 456 410 l 1
 420 431 375 443 333 443 c 0
293 544 m 0
 358 544 413 519 456 489 c 1
 456 587 455 685 454 783 c 1
 573 783 l 1
 574 652 575 521 575 389 c 0
 575 296 574 202 574 109 c 0
 574 73 574 36 573 0 c 1
 455 0 l 1
 455 53 l 1
 411 16 355 -6 292 -6 c 0
 144 -6 54 109 54 267 c 0
 54 428 159 544 293 544 c 0
EndSplineSet
EndChar

StartChar: e
Encoding: 101 101 61
Width: 581
Flags: MW
HStem: -9 101<343 345 345 356.5> 233 89<172 417 169 531 172 172> 441 102<262 331.5>
LayerCount: 2
Fore
SplineSet
297 543 m 0
 449 543 535 442 535 289 c 0
 535 270 534 252 531 233 c 1
 172 233 l 1
 190 148 251 92 343 92 c 2
 345 92 l 2
 387 92 428 106 463 130 c 1
 521 51 l 1
 461 12 392 -9 321 -9 c 0
 147 -9 48 100 48 267 c 0
 48 426 152 543 297 543 c 0
417 322 m 1
 406 391 364 441 299 441 c 0
 225 441 180 390 169 322 c 1
 417 322 l 1
EndSplineSet
EndChar

StartChar: f
Encoding: 102 102 62
Width: 482
Flags: MW
HStem: 0 21G<165 283 165 165> 423 109<29 165 29 165 283 463> 706 106<360.5 388 314.5 398>
VStem: 165 118<0 423 0 423 532 593>
LayerCount: 2
Fore
SplineSet
283 532 m 1
 463 532 l 1
 463 423 l 1
 283 423 l 1
 283 0 l 1
 165 0 l 1
 165 423 l 1
 29 423 l 1
 29 532 l 1
 165 532 l 1
 165 593 l 2
 165 724 259 812 370 812 c 0
 406 812 443 803 480 783 c 1
 446 691 l 1
 427 701 407 706 389 706 c 0
 332 706 283 660 283 593 c 2
 283 532 l 1
EndSplineSet
EndChar

StartChar: g
Encoding: 103 103 63
Width: 595
Flags: MW
HStem: -313 106<264 264 264 268> -29 97<242.5 355.5> 158 92<257 293 276 293> 432 85<489 576 489 489> 447 93<256.5 310.5 229 317>
VStem: 41 85<-130 -97.5> 62 117 68 93<110.5 136.5> 398 109<319 371 301 376> 458 109<-139.5 -75.5>
LayerCount: 2
Fore
SplineSet
458 -109 m 0xe440
 458 -42 385 -29 326 -29 c 0
 256 -29 195 -27 150 -11 c 1
 135 -32 126 -59 126 -87 c 0
 126 -173 200 -207 292 -207 c 0
 377 -207 458 -170 458 -109 c 0xe440
264 -313 m 1
 136 -312 41 -252 41 -125 c 0xf440
 41 -70 62 -18 99 21 c 1
 80 42 68 73 68 115 c 0xf1
 68 158 84 196 113 222 c 1
 81 254 62 294 62 345 c 0
 62 458 168 540 290 540 c 0xea
 331 540 365 532 397 517 c 1
 576 517 l 1
 576 432 l 1
 489 432 l 1
 500 411 507 386 507 356 c 0
 507 246 403 158 278 158 c 2
 276 158 l 2
 238 158 201 167 169 183 c 1
 164 171 161 159 161 144 c 0xf180
 161 77 208 68 277 68 c 0
 304 68 334 69 366 69 c 0
 465 69 567 18 567 -96 c 0
 567 -214 432 -313 268 -313 c 2
 264 -313 l 1
293 250 m 1
 347 251 398 290 398 348 c 0
 398 404 347 447 287 447 c 0
 226 447 180 405 179 352 c 0xea80
 177 294 230 250 291 250 c 2
 293 250 l 1
EndSplineSet
EndChar

StartChar: h
Encoding: 104 104 64
Width: 595
Flags: MW
HStem: 0 21G<71 190 71 71 415 533 415 415> 437 107<284.5 414> 763 20G<71 189 189 189>
VStem: 71 118<323.5 388 323.5 487 487 727 727 783> 415 118<0 54>
LayerCount: 2
Fore
SplineSet
350 544 m 0
 478 544 532 440 532 325 c 0
 532 216 533 108 533 0 c 1
 415 0 l 1
 414 105 414 210 414 314 c 0
 414 383 371 436 304 437 c 0
 265 437 220 417 189 388 c 1
 189 259 190 129 190 0 c 1
 71 0 l 1
 71 783 l 1
 189 783 l 1
 189 727 l 1
 189 487 l 1
 236 522 294 544 350 544 c 0
EndSplineSet
EndChar

StartChar: i
Encoding: 105 105 65
Width: 279
Flags: MW
HStem: 0 21G<84 84 84 203> 513 20G<83 202 202 202> 690 141<79 206 79 206>
VStem: 79 127<690 831 690 831>
LayerCount: 2
Fore
SplineSet
79 690 m 1
 79 831 l 1
 206 831 l 1
 206 690 l 1
 79 690 l 1
84 0 m 1
 83 533 l 1
 202 533 l 1
 203 0 l 1
 84 0 l 1
EndSplineSet
EndChar

StartChar: j
Encoding: 106 106 66
Width: 375
Flags: MW
HStem: -313 110<69 88.5 61.5 127.5> 515 20G<155 273 273 273> 683 146<150 277 150 277>
VStem: 155 118<-113 535>
LayerCount: 2
Fore
SplineSet
150 683 m 1
 150 829 l 1
 277 829 l 1
 277 683 l 1
 150 683 l 1
49 -202 m 1
 54 -203 59 -203 64 -203 c 0
 113 -203 155 -164 155 -113 c 2
 155 535 l 1
 273 535 l 1
 273 -113 l 2
 273 -225 182 -313 73 -313 c 0
 65 -313 57 -313 49 -312 c 1
 49 -202 l 1
EndSplineSet
EndChar

StartChar: k
Encoding: 107 107 67
Width: 623
Flags: MW
HStem: 0 21G<103 103 103 221 459 459 459 605> 513 20G<432 582 582 582> 763 20G<103 221 221 221>
VStem: 103 118<0 238 349 783>
LayerCount: 2
Fore
SplineSet
103 0 m 1
 103 783 l 1
 221 783 l 1
 221 349 l 1
 432 533 l 1
 582 533 l 1
 313 293 l 1
 605 0 l 1
 459 0 l 1
 221 238 l 1
 221 0 l 1
 103 0 l 1
EndSplineSet
EndChar

StartChar: l
Encoding: 108 108 68
Width: 294
Flags: MW
HStem: 1 21G<91 91 91 210> 763 20G<90 209 209 209>
VStem: 91 119<1 1>
LayerCount: 2
Fore
SplineSet
91 1 m 1
 90 783 l 1
 209 783 l 1
 210 1 l 1
 91 1 l 1
EndSplineSet
EndChar

StartChar: m
Encoding: 109 109 69
Width: 941
Flags: MW
HStem: 1 21G<416 535 416 416 753 871 753 753> 436 107<658 678.5> 513 20G<80 199 199 199>
VStem: 81 118<320.5 489 489 490.5> 417 119<292.5 353.5 289.5 377.5> 753 118<1 345>
LayerCount: 2
Fore
SplineSet
692 543 m 0xdc
 814 543 871 451 871 345 c 2
 871 1 l 1
 753 1 l 1
 752 114 752 227 752 340 c 0
 752 397 707 436 650 436 c 0xdc
 607 436 565 415 533 386 c 1
 535 373 536 360 536 347 c 0
 536 232 535 117 535 1 c 1
 416 1 l 1
 417 118 417 234 417 351 c 0
 417 404 374 441 319 441 c 2
 317 441 l 1
 276 440 232 420 199 390 c 1
 199 251 199 145 198 0 c 1
 79 0 l 1
 80 159 80 271 80 431 c 0
 80 448 81 465 81 482 c 0
 81 499 80 516 80 533 c 1
 199 533 l 1xbc
 199 489 l 1
 244 525 301 546 357 546 c 0
 432 546 480 512 508 463 c 1
 555 512 624 543 692 543 c 0xdc
EndSplineSet
EndChar

StartChar: n
Encoding: 110 110 70
Width: 607
Flags: MW
HStem: 0 21G<72 190 72 72 426 545 426 426> 435 108<333.5 352.5> 513 20G<74 192 192 192>
VStem: 74 118<315 477 477 533> 426 119<0 330 330 338 0 361>
LayerCount: 2
Fore
SplineSet
364 543 m 0xd8
 488 543 545 451 545 338 c 2
 545 0 l 1
 426 0 l 1
 426 330 l 2
 426 392 383 435 322 435 c 0xd8
 272 435 227 411 192 378 c 1
 192 252 191 126 190 0 c 1
 72 0 l 1
 73 144 73 287 74 431 c 1
 74 533 l 1
 192 533 l 1xb8
 192 477 l 1
 241 517 303 543 364 543 c 0xd8
EndSplineSet
EndChar

StartChar: o
Encoding: 111 111 71
Width: 618
Flags: MW
HStem: -9 108<269 359 269 387> 436 104<260.5 351>
VStem: 49 121 450 119<219 314.5>
LayerCount: 2
Fore
SplineSet
309 436 m 0
 212 436 169 362 170 273 c 0
 171 173 227 99 311 99 c 0
 407 99 450 173 450 265 c 0
 450 364 393 436 309 436 c 0
311 -9 m 0
 142 -9 49 104 49 267 c 0
 49 427 154 540 308 540 c 0
 472 540 569 430 569 271 c 0
 569 107 463 -9 311 -9 c 0
EndSplineSet
EndChar

StartChar: p
Encoding: 112 112 72
Width: 636
Flags: MW
HStem: -300 21G<71 190 71 71> -9 98<303.5 348 273.5 408> 452 88<338.5 366.5> 513 20G<71 190 190 190>
VStem: 71 119<-300 -300> 474 118<219.5 324>
LayerCount: 2
Fore
SplineSet
332 -9 m 0xec
 275 -9 231 4 192 27 c 1
 192 -82 191 -191 190 -300 c 1
 71 -300 l 1
 72 -158 73 -16 73 126 c 0
 73 214 73 301 72 389 c 0
 72 437 72 485 71 533 c 1
 190 533 l 1xdc
 190 475 l 1
 242 515 308 540 369 540 c 0
 510 540 592 414 592 272 c 0
 592 109 484 -9 332 -9 c 0xec
323 452 m 0xec
 268 452 224 424 191 387 c 1
 191 297 192 206 192 116 c 1
 222 98 256 89 291 89 c 0
 405 89 474 164 474 275 c 0
 474 373 410 452 323 452 c 0xec
EndSplineSet
EndChar

StartChar: q
Encoding: 113 113 73
Width: 643
Flags: MW
HStem: -300 21G<458 576 458 458> -7 84<307 344.5> 451 89<288 340 236.5 362.5> 513 20G<458 576 576 576>
VStem: 44 124<212 318 212 342> 458 118<-300 27 27 27 103 408 408 408 495 533 -300 533>
LayerCount: 2
Fore
SplineSet
310 540 m 0xec
 370 540 419 521 458 495 c 1
 458 533 l 1
 576 533 l 1xdc
 576 -300 l 1
 458 -300 l 1
 458 27 l 1
 416 4 369 -7 320 -7 c 0
 164 -7 44 99 44 266 c 0
 44 418 163 540 310 540 c 0xec
359 77 m 0
 396 77 428 86 458 103 c 1
 458 408 l 1
 426 436 384 451 341 451 c 0xec
 235 451 168 365 168 271 c 0
 168 153 255 77 359 77 c 0
EndSplineSet
EndChar

StartChar: r
Encoding: 114 114 74
Width: 429
Flags: MW
HStem: 0 21G<76 195 76 76> 436 106<331 368> 513 20G<76 195 195 195>
VStem: 76 119<0 363 0 475 475 533>
LayerCount: 2
Fore
SplineSet
363 436 m 0xd0
 292 436 239 402 195 363 c 1
 195 0 l 1
 76 0 l 1
 76 533 l 1
 195 533 l 1xb0
 195 475 l 1
 238 511 295 542 367 542 c 0
 380 542 394 541 407 539 c 1
 394 433 l 1
 384 435 373 436 363 436 c 0xd0
EndSplineSet
EndChar

StartChar: s
Encoding: 115 115 75
Width: 512
Flags: MW
HStem: -6 101<214.5 271.5 214.5 293> 448 92<252 291 200 297.5>
VStem: 63 120<365.5 414 365.5 434> 348 129<128.5 175.5>
LayerCount: 2
Fore
SplineSet
275 448 m 0
 229 448 183 435 183 393 c 0
 183 338 249 327 308 314 c 1
 392 294 477 252 477 158 c 0
 477 54 358 -6 228 -6 c 0
 153 -6 84 14 20 53 c 1
 67 144 l 1
 123 111 182 95 247 95 c 0
 296 95 348 105 348 152 c 0
 348 199 288 208 234 221 c 0
 149 241 63 286 63 390 c 0
 63 478 145 540 255 540 c 0
 327 540 383 522 440 491 c 1
 399 404 l 1
 363 433 320 448 275 448 c 0
EndSplineSet
EndChar

StartChar: t
Encoding: 116 116 76
Width: 454
Flags: MW
HStem: -6 101<295 303.5> 424 106<28 28 28 144 262 429>
VStem: 144 118<189.5 222 222 424 530 618 618 618>
LayerCount: 2
Fore
SplineSet
28 424 m 1
 26 530 l 1
 144 530 l 1
 144 618 l 1
 262 690 l 1
 262 530 l 1
 429 530 l 1
 429 424 l 1
 262 424 l 1
 262 222 l 2
 262 157 267 95 323 95 c 0
 346 95 368 101 387 112 c 1
 422 24 l 1
 377 5 328 -6 279 -6 c 0
 194 -6 144 62 144 151 c 2
 144 424 l 1
 28 424 l 1
EndSplineSet
EndChar

StartChar: u
Encoding: 117 117 77
Width: 605
Flags: MW
HStem: -10 89<275 298.5> 0 21G<423 542 423 423> 513 20G<76 195 195 195 423 542 542 542>
VStem: 76 118<170 205 170 533> 423 119<0 42 42 42 133 533 0 533>
LayerCount: 2
Fore
SplineSet
194 205 m 2xb8
 194 135 236 79 314 79 c 0xb8
 358 79 398 100 423 133 c 1
 423 533 l 1
 542 533 l 1
 542 0 l 1
 423 0 l 1x78
 423 42 l 1
 380 9 327 -10 270 -10 c 0
 152 -10 76 62 76 166 c 2
 76 533 l 1
 195 533 l 1
 194 205 l 2xb8
EndSplineSet
EndChar

StartChar: v
Encoding: 118 118 78
Width: 581
Flags: MW
HStem: 0 21G<238 348 238 238> 513 20G<25 152 152 152 432 559 559 559>
LayerCount: 2
Fore
SplineSet
25 533 m 1
 152 533 l 1
 290 142 l 1
 432 533 l 1
 559 533 l 1
 348 0 l 1
 238 0 l 1
 25 533 l 1
EndSplineSet
EndChar

StartChar: w
Encoding: 119 119 79
Width: 937
Flags: MW
HStem: 0 21G<244 354 244 244 577 687 577 577> 513 20G<47 166 166 166 414 525 525 525 787 915 915 915>
LayerCount: 2
Fore
SplineSet
47 533 m 1
 166 533 l 1
 292 152 l 1
 414 533 l 1
 525 533 l 1
 634 145 l 1
 787 533 l 1
 915 533 l 1
 687 0 l 1
 577 0 l 1
 468 356 l 1
 354 0 l 1
 244 0 l 1
 47 533 l 1
EndSplineSet
EndChar

StartChar: x
Encoding: 120 120 80
Width: 587
Flags: MW
HStem: 0 21G<33 168 33 33 412 550 412 412> 513 20G<70 209 209 209 418 553 553 553>
LayerCount: 2
Fore
SplineSet
70 533 m 1
 209 533 l 1
 304 385 l 1
 418 533 l 1
 553 533 l 1
 371 279 l 1
 550 0 l 1
 412 0 l 1
 302 172 l 1
 168 0 l 1
 33 0 l 1
 234 277 l 1
 70 533 l 1
EndSplineSet
EndChar

StartChar: y
Encoding: 121 121 81
Width: 591
Flags: MW
HStem: -300 21G<52 179 52 52> 513 20G<33 161 161 161 444 563 563 563>
LayerCount: 2
Fore
SplineSet
33 533 m 1
 161 533 l 1
 293 213 l 1
 444 533 l 1
 563 533 l 1
 179 -300 l 1
 52 -300 l 1
 231 80 l 1
 33 533 l 1
EndSplineSet
EndChar

StartChar: z
Encoding: 122 122 82
Width: 514
Flags: MW
HStem: 0 106<174 486 36 36> 422 106<80 80>
LayerCount: 2
Fore
SplineSet
80 422 m 1
 80 528 l 1
 476 529 l 1
 476 423 l 1
 174 106 l 1
 486 106 l 1
 486 0 l 1
 36 0 l 1
 36 106 l 1
 337 423 l 1
 80 422 l 1
EndSplineSet
EndChar

StartChar: bar
Encoding: 124 124 83
Width: 104
Flags: MW
HStem: -21 20G<-3 116 116 116> 1 21G<-3 -3 -3 116> 512 20G<-3 116 116 116> 535 21G<-3 116 -3 -3>
VStem: -3 119<-377 -1 -377 -1 1 532 535 847>
LayerCount: 2
Fore
SplineSet
-3 847 m 1
 116 847 l 1
 116 535 l 1
 -3 535 l 1
 -3 847 l 1
-3 1 m 1
 -3 532 l 1
 116 532 l 1
 116 1 l 1
 -3 1 l 1
-3 -377 m 1
 -3 -1 l 1
 116 -1 l 1
 116 -377 l 1
 -3 -377 l 1
EndSplineSet
EndChar

StartChar: .notdef
Encoding: 65536 -1 0
Width: 500
Flags: MW
HStem: 0 50<100 400 100 450> 483 50<100 400 100 100>
VStem: 50 50<50 50 50 483> 400 50<50 483 483 483>
LayerCount: 2
Fore
SplineSet
50 0 m 1
 50 533 l 1
 450 533 l 1
 450 0 l 1
 50 0 l 1
100 50 m 1
 400 50 l 1
 400 483 l 1
 100 483 l 1
 100 50 l 1
EndSplineSet
EndChar
